<svg width="26" height="25" viewBox="0 0 26 25" fill="none" xmlns="http://www.w3.org/2000/svg">
<path fill-rule="evenodd" clip-rule="evenodd" d="M18.9137 0.614525C19.3075 0.221036 19.8414 0 20.398 0C20.9547 0 21.4886 0.221036 21.8824 0.614525L24.9854 3.71759C25.3789 4.11136 25.6 4.64525 25.6 5.20193C25.6 5.7586 25.3789 6.29249 24.9854 6.68626L21.634 10.0377L21.6196 10.0533L8.62656 22.4548C8.38919 22.6817 8.10191 22.8498 7.7878 22.9456L1.16048 24.9615C1.00461 25.0086 0.838871 25.0126 0.680923 24.9729C0.522975 24.9333 0.378741 24.8516 0.263592 24.7364C0.148444 24.6213 0.0666964 24.477 0.0270623 24.3191C-0.0125718 24.1611 -0.0086072 23.9954 0.0385337 23.8395L2.04605 17.2398C2.15133 16.8944 2.34393 16.5819 2.60522 16.3326L15.5695 3.95758L18.9137 0.614525ZM16.1838 5.8595L3.84837 17.6346C3.81085 17.6701 3.78316 17.7148 3.76797 17.7642L2.25124 22.7488L7.26342 21.2236C7.30842 21.2098 7.34953 21.1855 7.38341 21.1528L19.7105 9.38614L16.1826 5.8595H16.1838ZM20.998 8.1298L23.7135 5.41552C23.7414 5.38765 23.7636 5.35455 23.7787 5.3181C23.7939 5.28166 23.8016 5.24258 23.8016 5.20313C23.8016 5.16367 23.7939 5.1246 23.7787 5.08815C23.7636 5.0517 23.7414 5.0186 23.7135 4.99073L20.6104 1.88767C20.5826 1.85973 20.5495 1.83757 20.513 1.82245C20.4766 1.80732 20.4375 1.79954 20.398 1.79954C20.3586 1.79954 20.3195 1.80732 20.2831 1.82245C20.2466 1.83757 20.2135 1.85973 20.1857 1.88767L17.4714 4.60195L20.998 8.1298Z" fill="white"/>
</svg>
