<svg width="32" height="32" viewBox="0 0 32 32" fill="none" xmlns="http://www.w3.org/2000/svg">
<path d="M5.3335 9.33353H26.6668" stroke="white" stroke-width="2" stroke-linecap="round" stroke-linejoin="round"/>
<path d="M13.333 14.6667V22.6667" stroke="white" stroke-width="2" stroke-linecap="round" stroke-linejoin="round"/>
<path d="M18.667 14.6667V22.6667" stroke="white" stroke-width="2" stroke-linecap="round" stroke-linejoin="round"/>
<path d="M6.6665 9.33353L7.99984 25.3335C7.99984 26.0408 8.28079 26.719 8.78089 27.2191C9.28098 27.7192 9.95926 28.0002 10.6665 28.0002H21.3332C22.0404 28.0002 22.7187 27.7192 23.2188 27.2191C23.7189 26.719 23.9998 26.0408 23.9998 25.3335L25.3332 9.33353" stroke="white" stroke-width="2" stroke-linecap="round" stroke-linejoin="round"/>
<path d="M12 9.33324V5.33324C12 4.97962 12.1405 4.64048 12.3905 4.39043C12.6406 4.14038 12.9797 3.99991 13.3333 3.99991H18.6667C19.0203 3.99991 19.3594 4.14038 19.6095 4.39043C19.8595 4.64048 20 4.97962 20 5.33324V9.33324" stroke="white" stroke-width="2" stroke-linecap="round" stroke-linejoin="round"/>
</svg>
